<?xml version="1.0" standalone="no"?><!DOCTYPE svg PUBLIC "-//W3C//DTD SVG 1.1//EN" "http://www.w3.org/Graphics/SVG/1.1/DTD/svg11.dtd"><svg t="1642606232393" class="icon" viewBox="0 0 1024 1024" version="1.1" xmlns="http://www.w3.org/2000/svg" p-id="62387" xmlns:xlink="http://www.w3.org/1999/xlink" width="200" height="200"><defs><style type="text/css"></style></defs><path d="M831.796 1023.984H192.204V384.41H448.04v-127.902h383.756v767.476z" fill="#EC5564" p-id="62388"></path><path d="M469.354 554.968h-170.558a21.3 21.3 0 0 1-21.312-21.312V491c0-11.75 9.532-21.312 21.312-21.312 11.78 0 21.342 9.562 21.342 21.312v21.342h149.214c11.78 0 21.312 9.532 21.312 21.312s-9.53 21.314-21.31 21.314zM725.176 554.968h-170.558c-11.766 0-21.296-9.532-21.296-21.312V491c0-11.75 9.532-21.312 21.296-21.312 11.812 0 21.312 9.562 21.312 21.312v21.342h149.246c11.812 0 21.312 9.532 21.312 21.312s-9.5 21.314-21.312 21.314zM725.176 427.064h-170.558c-11.766 0-21.296-9.562-21.296-21.342v-42.624c0-11.78 9.532-21.31 21.296-21.31a21.278 21.278 0 0 1 21.312 21.31v21.312h149.246c11.812 0 21.312 9.562 21.312 21.312 0 11.78-9.5 21.342-21.312 21.342zM469.354 682.872h-170.558a21.3 21.3 0 0 1-21.312-21.312v-42.624a21.298 21.298 0 0 1 21.312-21.308c11.78 0 21.342 9.532 21.342 21.308v21.312h149.214c11.78 0 21.312 9.532 21.312 21.312s-9.53 21.312-21.31 21.312zM725.176 682.872h-170.558c-11.766 0-21.296-9.532-21.296-21.312v-42.624c0-11.778 9.532-21.308 21.296-21.308a21.28 21.28 0 0 1 21.312 21.308v21.312h149.246c11.812 0 21.312 9.532 21.312 21.312s-9.5 21.312-21.312 21.312zM469.354 810.804h-170.558c-11.782 0-21.312-9.562-21.312-21.312V746.84a21.3 21.3 0 0 1 21.312-21.312c11.78 0 21.342 9.532 21.342 21.312v21.308h149.214c11.78 0 21.312 9.562 21.312 21.344 0.002 11.75-9.53 21.312-21.31 21.312zM725.176 810.804h-170.558c-11.766 0-21.296-9.562-21.296-21.312V746.84c0-11.782 9.532-21.312 21.296-21.312a21.28 21.28 0 0 1 21.312 21.312v21.308h149.246c11.812 0 21.312 9.562 21.312 21.344 0 11.75-9.5 21.312-21.312 21.312z" fill="#D94452" p-id="62389"></path><path d="M575.93 1023.984h-127.888v-170.558h127.888v170.558z" fill="#424953" p-id="62390"></path><path d="M379.826 222.382L320.14 142.79V21.326c0-11.78-9.562-21.312-21.342-21.312a21.3 21.3 0 0 0-21.312 21.312v121.464L217.8 222.382c-7.062 9.438-5.156 22.782 4.25 29.844a21.308 21.308 0 0 0 12.78 4.282c6.5 0 12.876-2.938 17.062-8.532l46.906-62.53 46.906 62.53a21.26 21.26 0 0 0 17.062 8.532c4.468 0 8.938-1.406 12.782-4.282 9.434-7.062 11.34-20.406 4.278-29.844z" fill="#E5E8EC" p-id="62391"></path><path d="M405.386 341.788H192.204v-127.936h213.182v127.936z" fill="#EC5564" p-id="62392"></path></svg>